<?xml version="1.0" encoding="UTF-8" standalone="no"?>
<!-- Created with Inkscape (http://www.inkscape.org/) -->

<svg
   xmlns:dc="http://purl.org/dc/elements/1.1/"
   xmlns:cc="http://creativecommons.org/ns#"
   xmlns:rdf="http://www.w3.org/1999/02/22-rdf-syntax-ns#"
   xmlns:svg="http://www.w3.org/2000/svg"
   xmlns="http://www.w3.org/2000/svg"
   xmlns:sodipodi="http://sodipodi.sourceforge.net/DTD/sodipodi-0.dtd"
   xmlns:inkscape="http://www.inkscape.org/namespaces/inkscape"
   width="200"
   height="200"
   viewBox="0 0 200 200"
   id="svg4144"
   version="1.1"
   inkscape:version="0.91 r13725"
   sodipodi:docname="[ackages.svg">
  <defs
     id="defs4146">
    <inkscape:perspective
       sodipodi:type="inkscape:persp3d"
       inkscape:vp_x="-34.826686 : 169.98407 : 1"
       inkscape:vp_y="0 : 1000 : 0"
       inkscape:vp_z="263.22479 : 179.15594 : 1"
       inkscape:persp3d-origin="100 : 66.666667 : 1"
       id="perspective4708" />
  </defs>
  <sodipodi:namedview
     id="base"
     pagecolor="#ffffff"
     bordercolor="#666666"
     borderopacity="1.0"
     inkscape:pageopacity="0.0"
     inkscape:pageshadow="2"
     inkscape:zoom="0.7"
     inkscape:cx="59.660385"
     inkscape:cy="36.173241"
     inkscape:document-units="px"
     inkscape:current-layer="layer1"
     showgrid="false"
     units="px"
     inkscape:snap-bbox="true"
     inkscape:snap-bbox-midpoints="false"
     inkscape:bbox-nodes="false"
     inkscape:bbox-paths="false"
     inkscape:snap-bbox-edge-midpoints="false"
     inkscape:snap-center="true"
     inkscape:window-width="1210"
     inkscape:window-height="727"
     inkscape:window-x="523"
     inkscape:window-y="115"
     inkscape:window-maximized="0" />
  <metadata
     id="metadata4149">
    <rdf:RDF>
      <cc:Work
         rdf:about="">
        <dc:format>image/svg+xml</dc:format>
        <dc:type
           rdf:resource="http://purl.org/dc/dcmitype/StillImage" />
        <dc:title />
      </cc:Work>
    </rdf:RDF>
  </metadata>
  <g
     inkscape:label="Layer 1"
     inkscape:groupmode="layer"
     id="layer1"
     transform="translate(0,-852.36214)">
    <g
       transform="matrix(0.39447207,0,0,0.39447207,-2.8153631,592.07041)"
       id="g6005">
      <rect
         transform="matrix(0.83867057,-0.54463904,0,1,0,0)"
         y="1029.095"
         x="120.1869"
         height="76.950111"
         width="93.3209"
         id="rect6007"
         style="opacity:1;fill:#ffffff;fill-opacity:1;fill-rule:nonzero;stroke:#000000;stroke-width:7.10952711;stroke-linecap:square;stroke-linejoin:miter;stroke-miterlimit:1.60000002;stroke-dasharray:none;stroke-opacity:1" />
      <path
         id="path6009"
         style="fill:#000000;fill-opacity:1;fill-rule:evenodd;stroke:#000000;stroke-width:2.60433245;stroke-linecap:butt;stroke-linejoin:miter;stroke-miterlimit:4;stroke-dasharray:none;stroke-opacity:1"
         d="m 117.77234,1015.3562 c 0,0 30.80127,-20.14206 48.2121,-31.3093 6.70663,-4.30168 -10.60293,-10.77514 -14.45306,-4.61214 -5.54417,8.87467 -14.83284,15.29106 -20.49138,13.30725 -5.65853,-1.9838 -5.65853,-11.15814 0,-20.49137 5.65854,-9.33323 13.5101,-14.79327 20.49138,-13.30726 3.90876,0.83204 21.19523,-27.81867 14.45306,-23.53901 -15.89329,10.08844 -48.2121,31.30931 -48.2121,31.30931 z"
         inkscape:connector-curvature="0"
         sodipodi:nodetypes="csssssscc" />
      <rect
         transform="matrix(0.83867057,0.54463904,0,1,0,0)"
         y="898.17804"
         x="26.865999"
         height="76.950111"
         width="93.3209"
         id="rect6011"
         style="opacity:1;fill:#ffffff;fill-opacity:1;fill-rule:nonzero;stroke:#000000;stroke-width:7.10952711;stroke-linecap:square;stroke-linejoin:miter;stroke-miterlimit:1.60000002;stroke-dasharray:none;stroke-opacity:1" />
      <rect
         transform="matrix(0.83828718,-0.54522895,0.83828718,0.54522895,0,0)"
         ry="0"
         y="850.63477"
         x="-823.75653"
         height="93.363609"
         width="93.363609"
         id="rect6013"
         style="opacity:1;fill:#ffffff;fill-opacity:1;fill-rule:nonzero;stroke:#000000;stroke-width:6.80981874;stroke-linecap:square;stroke-linejoin:miter;stroke-miterlimit:1.60000002;stroke-dasharray:none;stroke-opacity:1" />
      <rect
         transform="matrix(0.83828718,-0.54522895,0.83828718,0.54522895,0,0)"
         ry="0"
         y="897.05182"
         x="-816.78882"
         height="0.52940577"
         width="79.428329"
         id="rect6015"
         style="opacity:1;fill:#ffffff;fill-opacity:1;fill-rule:nonzero;stroke:#000000;stroke-width:16.99013138;stroke-linecap:square;stroke-linejoin:miter;stroke-miterlimit:2;stroke-dasharray:none;stroke-opacity:1" />
      <rect
         style="opacity:1;fill:#000000;fill-opacity:1;fill-rule:nonzero;stroke:#000000;stroke-width:7.10952711;stroke-linecap:square;stroke-linejoin:miter;stroke-miterlimit:10;stroke-dasharray:none;stroke-opacity:1"
         id="rect6017"
         width="10.946861"
         height="19.190893"
         x="70.773972"
         y="897.88086"
         transform="matrix(0.83867057,0.54463904,0,1,0,0)" />
    </g>
    <g
       id="g6019"
       transform="matrix(0.39447207,0,0,0.39447207,28.742408,612.68765)">
      <rect
         style="opacity:1;fill:#ffffff;fill-opacity:1;fill-rule:nonzero;stroke:#000000;stroke-width:7.10952711;stroke-linecap:square;stroke-linejoin:miter;stroke-miterlimit:1.60000002;stroke-dasharray:none;stroke-opacity:1"
         id="rect6021"
         width="93.3209"
         height="76.950111"
         x="120.1869"
         y="1029.095"
         transform="matrix(0.83867057,-0.54463904,0,1,0,0)" />
      <path
         sodipodi:nodetypes="csssssscc"
         inkscape:connector-curvature="0"
         d="m 117.77234,1015.3562 c 0,0 30.80127,-20.14206 48.2121,-31.3093 6.70663,-4.30168 -10.60293,-10.77514 -14.45306,-4.61214 -5.54417,8.87467 -14.83284,15.29106 -20.49138,13.30725 -5.65853,-1.9838 -5.65853,-11.15814 0,-20.49137 5.65854,-9.33323 13.5101,-14.79327 20.49138,-13.30726 3.90876,0.83204 21.19523,-27.81867 14.45306,-23.53901 -15.89329,10.08844 -48.2121,31.30931 -48.2121,31.30931 z"
         style="fill:#000000;fill-opacity:1;fill-rule:evenodd;stroke:#000000;stroke-width:2.60433245;stroke-linecap:butt;stroke-linejoin:miter;stroke-miterlimit:4;stroke-dasharray:none;stroke-opacity:1"
         id="path6023" />
      <rect
         style="opacity:1;fill:#ffffff;fill-opacity:1;fill-rule:nonzero;stroke:#000000;stroke-width:7.10952711;stroke-linecap:square;stroke-linejoin:miter;stroke-miterlimit:1.60000002;stroke-dasharray:none;stroke-opacity:1"
         id="rect6025"
         width="93.3209"
         height="76.950111"
         x="26.865999"
         y="898.17804"
         transform="matrix(0.83867057,0.54463904,0,1,0,0)" />
      <rect
         style="opacity:1;fill:#ffffff;fill-opacity:1;fill-rule:nonzero;stroke:#000000;stroke-width:6.80981874;stroke-linecap:square;stroke-linejoin:miter;stroke-miterlimit:1.60000002;stroke-dasharray:none;stroke-opacity:1"
         id="rect6027"
         width="93.363609"
         height="93.363609"
         x="-823.75653"
         y="850.63477"
         ry="0"
         transform="matrix(0.83828718,-0.54522895,0.83828718,0.54522895,0,0)" />
      <rect
         style="opacity:1;fill:#ffffff;fill-opacity:1;fill-rule:nonzero;stroke:#000000;stroke-width:16.99013138;stroke-linecap:square;stroke-linejoin:miter;stroke-miterlimit:2;stroke-dasharray:none;stroke-opacity:1"
         id="rect6029"
         width="79.428329"
         height="0.52940577"
         x="-816.78882"
         y="897.05182"
         ry="0"
         transform="matrix(0.83828718,-0.54522895,0.83828718,0.54522895,0,0)" />
      <rect
         transform="matrix(0.83867057,0.54463904,0,1,0,0)"
         y="897.88086"
         x="70.773972"
         height="19.190893"
         width="10.946861"
         id="rect6031"
         style="opacity:1;fill:#000000;fill-opacity:1;fill-rule:nonzero;stroke:#000000;stroke-width:7.10952711;stroke-linecap:square;stroke-linejoin:miter;stroke-miterlimit:10;stroke-dasharray:none;stroke-opacity:1" />
    </g>
    <g
       transform="matrix(0.39447207,0,0,0.39447207,123.84249,591.67194)"
       id="g6033">
      <rect
         transform="matrix(0.83867057,-0.54463904,0,1,0,0)"
         y="1029.095"
         x="120.1869"
         height="76.950111"
         width="93.3209"
         id="rect6035"
         style="opacity:1;fill:#ffffff;fill-opacity:1;fill-rule:nonzero;stroke:#000000;stroke-width:7.10952711;stroke-linecap:square;stroke-linejoin:miter;stroke-miterlimit:1.60000002;stroke-dasharray:none;stroke-opacity:1" />
      <path
         id="path6037"
         style="fill:#000000;fill-opacity:1;fill-rule:evenodd;stroke:#000000;stroke-width:2.60433245;stroke-linecap:butt;stroke-linejoin:miter;stroke-miterlimit:4;stroke-dasharray:none;stroke-opacity:1"
         d="m 117.77234,1015.3562 c 0,0 30.80127,-20.14206 48.2121,-31.3093 6.70663,-4.30168 -10.60293,-10.77514 -14.45306,-4.61214 -5.54417,8.87467 -14.83284,15.29106 -20.49138,13.30725 -5.65853,-1.9838 -5.65853,-11.15814 0,-20.49137 5.65854,-9.33323 13.5101,-14.79327 20.49138,-13.30726 3.90876,0.83204 21.19523,-27.81867 14.45306,-23.53901 -15.89329,10.08844 -48.2121,31.30931 -48.2121,31.30931 z"
         inkscape:connector-curvature="0"
         sodipodi:nodetypes="csssssscc" />
      <rect
         transform="matrix(0.83867057,0.54463904,0,1,0,0)"
         y="898.17804"
         x="26.865999"
         height="76.950111"
         width="93.3209"
         id="rect6039"
         style="opacity:1;fill:#ffffff;fill-opacity:1;fill-rule:nonzero;stroke:#000000;stroke-width:7.10952711;stroke-linecap:square;stroke-linejoin:miter;stroke-miterlimit:1.60000002;stroke-dasharray:none;stroke-opacity:1" />
      <rect
         transform="matrix(0.83828718,-0.54522895,0.83828718,0.54522895,0,0)"
         ry="0"
         y="850.63477"
         x="-823.75653"
         height="93.363609"
         width="93.363609"
         id="rect6041"
         style="opacity:1;fill:#ffffff;fill-opacity:1;fill-rule:nonzero;stroke:#000000;stroke-width:6.80981874;stroke-linecap:square;stroke-linejoin:miter;stroke-miterlimit:1.60000002;stroke-dasharray:none;stroke-opacity:1" />
      <rect
         transform="matrix(0.83828718,-0.54522895,0.83828718,0.54522895,0,0)"
         ry="0"
         y="897.05182"
         x="-816.78882"
         height="0.52940577"
         width="79.428329"
         id="rect6043"
         style="opacity:1;fill:#ffffff;fill-opacity:1;fill-rule:nonzero;stroke:#000000;stroke-width:16.99013138;stroke-linecap:square;stroke-linejoin:miter;stroke-miterlimit:2;stroke-dasharray:none;stroke-opacity:1" />
      <rect
         style="opacity:1;fill:#000000;fill-opacity:1;fill-rule:nonzero;stroke:#000000;stroke-width:7.10952711;stroke-linecap:square;stroke-linejoin:miter;stroke-miterlimit:10;stroke-dasharray:none;stroke-opacity:1"
         id="rect6045"
         width="10.946861"
         height="19.190893"
         x="70.773972"
         y="897.88086"
         transform="matrix(0.83867057,0.54463904,0,1,0,0)" />
    </g>
    <g
       id="g6047"
       transform="matrix(0.39447207,0,0,0.39447207,92.284734,611.95907)">
      <rect
         style="opacity:1;fill:#ffffff;fill-opacity:1;fill-rule:nonzero;stroke:#000000;stroke-width:7.10952711;stroke-linecap:square;stroke-linejoin:miter;stroke-miterlimit:1.60000002;stroke-dasharray:none;stroke-opacity:1"
         id="rect6049"
         width="93.3209"
         height="76.950111"
         x="120.1869"
         y="1029.095"
         transform="matrix(0.83867057,-0.54463904,0,1,0,0)" />
      <path
         sodipodi:nodetypes="csssssscc"
         inkscape:connector-curvature="0"
         d="m 117.77234,1015.3562 c 0,0 30.80127,-20.14206 48.2121,-31.3093 6.70663,-4.30168 -10.60293,-10.77514 -14.45306,-4.61214 -5.54417,8.87467 -14.83284,15.29106 -20.49138,13.30725 -5.65853,-1.9838 -5.65853,-11.15814 0,-20.49137 5.65854,-9.33323 13.5101,-14.79327 20.49138,-13.30726 3.90876,0.83204 21.19523,-27.81867 14.45306,-23.53901 -15.89329,10.08844 -48.2121,31.30931 -48.2121,31.30931 z"
         style="fill:#000000;fill-opacity:1;fill-rule:evenodd;stroke:#000000;stroke-width:2.60433245;stroke-linecap:butt;stroke-linejoin:miter;stroke-miterlimit:4;stroke-dasharray:none;stroke-opacity:1"
         id="path6051" />
      <rect
         style="opacity:1;fill:#ffffff;fill-opacity:1;fill-rule:nonzero;stroke:#000000;stroke-width:7.10952711;stroke-linecap:square;stroke-linejoin:miter;stroke-miterlimit:1.60000002;stroke-dasharray:none;stroke-opacity:1"
         id="rect6053"
         width="93.3209"
         height="76.950111"
         x="26.865999"
         y="898.17804"
         transform="matrix(0.83867057,0.54463904,0,1,0,0)" />
      <rect
         style="opacity:1;fill:#ffffff;fill-opacity:1;fill-rule:nonzero;stroke:#000000;stroke-width:6.80981874;stroke-linecap:square;stroke-linejoin:miter;stroke-miterlimit:1.60000002;stroke-dasharray:none;stroke-opacity:1"
         id="rect6055"
         width="93.363609"
         height="93.363609"
         x="-823.75653"
         y="850.63477"
         ry="0"
         transform="matrix(0.83828718,-0.54522895,0.83828718,0.54522895,0,0)" />
      <rect
         style="opacity:1;fill:#ffffff;fill-opacity:1;fill-rule:nonzero;stroke:#000000;stroke-width:16.99013138;stroke-linecap:square;stroke-linejoin:miter;stroke-miterlimit:2;stroke-dasharray:none;stroke-opacity:1"
         id="rect6057"
         width="79.428329"
         height="0.52940577"
         x="-816.78882"
         y="897.05182"
         ry="0"
         transform="matrix(0.83828718,-0.54522895,0.83828718,0.54522895,0,0)" />
      <rect
         transform="matrix(0.83867057,0.54463904,0,1,0,0)"
         y="897.88086"
         x="70.773972"
         height="19.190893"
         width="10.946861"
         id="rect6059"
         style="opacity:1;fill:#000000;fill-opacity:1;fill-rule:nonzero;stroke:#000000;stroke-width:7.10952711;stroke-linecap:square;stroke-linejoin:miter;stroke-miterlimit:10;stroke-dasharray:none;stroke-opacity:1" />
    </g>
    <g
       transform="matrix(0.39447207,0,0,0.39447207,60.163432,632.80973)"
       id="g6061">
      <rect
         transform="matrix(0.83867057,-0.54463904,0,1,0,0)"
         y="1029.095"
         x="120.1869"
         height="76.950111"
         width="93.3209"
         id="rect6063"
         style="opacity:1;fill:#ffffff;fill-opacity:1;fill-rule:nonzero;stroke:#000000;stroke-width:7.10952711;stroke-linecap:square;stroke-linejoin:miter;stroke-miterlimit:1.60000002;stroke-dasharray:none;stroke-opacity:1" />
      <path
         id="path6065"
         style="fill:#000000;fill-opacity:1;fill-rule:evenodd;stroke:#000000;stroke-width:2.60433245;stroke-linecap:butt;stroke-linejoin:miter;stroke-miterlimit:4;stroke-dasharray:none;stroke-opacity:1"
         d="m 117.77234,1015.3562 c 0,0 30.80127,-20.14206 48.2121,-31.3093 6.70663,-4.30168 -10.60293,-10.77514 -14.45306,-4.61214 -5.54417,8.87467 -14.83284,15.29106 -20.49138,13.30725 -5.65853,-1.9838 -5.65853,-11.15814 0,-20.49137 5.65854,-9.33323 13.5101,-14.79327 20.49138,-13.30726 3.90876,0.83204 21.19523,-27.81867 14.45306,-23.53901 -15.89329,10.08844 -48.2121,31.30931 -48.2121,31.30931 z"
         inkscape:connector-curvature="0"
         sodipodi:nodetypes="csssssscc" />
      <rect
         transform="matrix(0.83867057,0.54463904,0,1,0,0)"
         y="898.17804"
         x="26.865999"
         height="76.950111"
         width="93.3209"
         id="rect6067"
         style="opacity:1;fill:#ffffff;fill-opacity:1;fill-rule:nonzero;stroke:#000000;stroke-width:7.10952711;stroke-linecap:square;stroke-linejoin:miter;stroke-miterlimit:1.60000002;stroke-dasharray:none;stroke-opacity:1" />
      <rect
         transform="matrix(0.83828718,-0.54522895,0.83828718,0.54522895,0,0)"
         ry="0"
         y="850.63477"
         x="-823.75653"
         height="93.363609"
         width="93.363609"
         id="rect6069"
         style="opacity:1;fill:#ffffff;fill-opacity:1;fill-rule:nonzero;stroke:#000000;stroke-width:6.80981874;stroke-linecap:square;stroke-linejoin:miter;stroke-miterlimit:1.60000002;stroke-dasharray:none;stroke-opacity:1" />
      <rect
         transform="matrix(0.83828718,-0.54522895,0.83828718,0.54522895,0,0)"
         ry="0"
         y="897.05182"
         x="-816.78882"
         height="0.52940577"
         width="79.428329"
         id="rect6071"
         style="opacity:1;fill:#ffffff;fill-opacity:1;fill-rule:nonzero;stroke:#000000;stroke-width:16.99013138;stroke-linecap:square;stroke-linejoin:miter;stroke-miterlimit:2;stroke-dasharray:none;stroke-opacity:1" />
      <rect
         style="opacity:1;fill:#000000;fill-opacity:1;fill-rule:nonzero;stroke:#000000;stroke-width:7.10952711;stroke-linecap:square;stroke-linejoin:miter;stroke-miterlimit:10;stroke-dasharray:none;stroke-opacity:1"
         id="rect6073"
         width="10.946861"
         height="19.190893"
         x="70.773972"
         y="897.88086"
         transform="matrix(0.83867057,0.54463904,0,1,0,0)" />
    </g>
    <g
       id="g5955"
       transform="matrix(0.39447207,0,0,0.39447207,91.351629,562.19009)">
      <rect
         transform="matrix(0.83867057,-0.54463904,0,1,0,0)"
         y="1029.095"
         x="120.1869"
         height="76.950111"
         width="93.3209"
         id="rect4753"
         style="opacity:1;fill:#ffffff;fill-opacity:1;fill-rule:nonzero;stroke:#000000;stroke-width:7.10952711;stroke-linecap:square;stroke-linejoin:miter;stroke-miterlimit:1.60000002;stroke-dasharray:none;stroke-opacity:1" />
      <path
         id="path4241"
         style="fill:#000000;fill-opacity:1;fill-rule:evenodd;stroke:#000000;stroke-width:2.60433245;stroke-linecap:butt;stroke-linejoin:miter;stroke-miterlimit:4;stroke-dasharray:none;stroke-opacity:1"
         d="m 117.77234,1015.3562 c 0,0 30.80127,-20.14206 48.2121,-31.3093 6.70663,-4.30168 -10.60293,-10.77514 -14.45306,-4.61214 -5.54417,8.87467 -14.83284,15.29106 -20.49138,13.30725 -5.65853,-1.9838 -5.65853,-11.15814 0,-20.49137 5.65854,-9.33323 13.5101,-14.79327 20.49138,-13.30726 3.90876,0.83204 21.19523,-27.81867 14.45306,-23.53901 -15.89329,10.08844 -48.2121,31.30931 -48.2121,31.30931 z"
         inkscape:connector-curvature="0"
         sodipodi:nodetypes="csssssscc" />
      <rect
         transform="matrix(0.83867057,0.54463904,0,1,0,0)"
         y="898.17804"
         x="26.865999"
         height="76.950111"
         width="93.3209"
         id="rect4753-2"
         style="opacity:1;fill:#ffffff;fill-opacity:1;fill-rule:nonzero;stroke:#000000;stroke-width:7.10952711;stroke-linecap:square;stroke-linejoin:miter;stroke-miterlimit:1.60000002;stroke-dasharray:none;stroke-opacity:1" />
      <rect
         transform="matrix(0.83828718,-0.54522895,0.83828718,0.54522895,0,0)"
         ry="0"
         y="850.63477"
         x="-823.75653"
         height="93.363609"
         width="93.363609"
         id="rect4774"
         style="opacity:1;fill:#ffffff;fill-opacity:1;fill-rule:nonzero;stroke:#000000;stroke-width:6.80981874;stroke-linecap:square;stroke-linejoin:miter;stroke-miterlimit:1.60000002;stroke-dasharray:none;stroke-opacity:1" />
      <rect
         transform="matrix(0.83828718,-0.54522895,0.83828718,0.54522895,0,0)"
         ry="0"
         y="897.05182"
         x="-816.78882"
         height="0.52940577"
         width="79.428329"
         id="rect4786"
         style="opacity:1;fill:#ffffff;fill-opacity:1;fill-rule:nonzero;stroke:#000000;stroke-width:16.99013138;stroke-linecap:square;stroke-linejoin:miter;stroke-miterlimit:2;stroke-dasharray:none;stroke-opacity:1" />
      <rect
         style="opacity:1;fill:#000000;fill-opacity:1;fill-rule:nonzero;stroke:#000000;stroke-width:7.10952711;stroke-linecap:square;stroke-linejoin:miter;stroke-miterlimit:10;stroke-dasharray:none;stroke-opacity:1"
         id="rect4792"
         width="10.946861"
         height="19.190893"
         x="70.773972"
         y="897.88086"
         transform="matrix(0.83867057,0.54463904,0,1,0,0)" />
    </g>
    <g
       id="g5963"
       transform="matrix(0.39447207,0,0,0.39447207,27.196843,562.19009)">
      <rect
         style="opacity:1;fill:#ffffff;fill-opacity:1;fill-rule:nonzero;stroke:#000000;stroke-width:7.10952711;stroke-linecap:square;stroke-linejoin:miter;stroke-miterlimit:1.60000002;stroke-dasharray:none;stroke-opacity:1"
         id="rect5965"
         width="93.3209"
         height="76.950111"
         x="120.1869"
         y="1029.095"
         transform="matrix(0.83867057,-0.54463904,0,1,0,0)" />
      <path
         sodipodi:nodetypes="csssssscc"
         inkscape:connector-curvature="0"
         d="m 117.77234,1015.3562 c 0,0 30.80127,-20.14206 48.2121,-31.3093 6.70663,-4.30168 -10.60293,-10.77514 -14.45306,-4.61214 -5.54417,8.87467 -14.83284,15.29106 -20.49138,13.30725 -5.65853,-1.9838 -5.65853,-11.15814 0,-20.49137 5.65854,-9.33323 13.5101,-14.79327 20.49138,-13.30726 3.90876,0.83204 21.19523,-27.81867 14.45306,-23.53901 -15.89329,10.08844 -48.2121,31.30931 -48.2121,31.30931 z"
         style="fill:#000000;fill-opacity:1;fill-rule:evenodd;stroke:#000000;stroke-width:2.60433245;stroke-linecap:butt;stroke-linejoin:miter;stroke-miterlimit:4;stroke-dasharray:none;stroke-opacity:1"
         id="path5967" />
      <rect
         style="opacity:1;fill:#ffffff;fill-opacity:1;fill-rule:nonzero;stroke:#000000;stroke-width:7.10952711;stroke-linecap:square;stroke-linejoin:miter;stroke-miterlimit:1.60000002;stroke-dasharray:none;stroke-opacity:1"
         id="rect5969"
         width="93.3209"
         height="76.950111"
         x="26.865999"
         y="898.17804"
         transform="matrix(0.83867057,0.54463904,0,1,0,0)" />
      <rect
         style="opacity:1;fill:#ffffff;fill-opacity:1;fill-rule:nonzero;stroke:#000000;stroke-width:6.80981874;stroke-linecap:square;stroke-linejoin:miter;stroke-miterlimit:1.60000002;stroke-dasharray:none;stroke-opacity:1"
         id="rect5971"
         width="93.363609"
         height="93.363609"
         x="-823.75653"
         y="850.63477"
         ry="0"
         transform="matrix(0.83828718,-0.54522895,0.83828718,0.54522895,0,0)" />
      <rect
         style="opacity:1;fill:#ffffff;fill-opacity:1;fill-rule:nonzero;stroke:#000000;stroke-width:16.99013138;stroke-linecap:square;stroke-linejoin:miter;stroke-miterlimit:2;stroke-dasharray:none;stroke-opacity:1"
         id="rect5973"
         width="79.428329"
         height="0.52940577"
         x="-816.78882"
         y="897.05182"
         ry="0"
         transform="matrix(0.83828718,-0.54522895,0.83828718,0.54522895,0,0)" />
      <rect
         transform="matrix(0.83867057,0.54463904,0,1,0,0)"
         y="897.88086"
         x="70.773972"
         height="19.190893"
         width="10.946861"
         id="rect5975"
         style="opacity:1;fill:#000000;fill-opacity:1;fill-rule:nonzero;stroke:#000000;stroke-width:7.10952711;stroke-linecap:square;stroke-linejoin:miter;stroke-miterlimit:10;stroke-dasharray:none;stroke-opacity:1" />
    </g>
    <g
       transform="matrix(0.39447207,0,0,0.39447207,59.599903,583.32252)"
       id="g5977">
      <rect
         transform="matrix(0.83867057,-0.54463904,0,1,0,0)"
         y="1029.095"
         x="120.1869"
         height="76.950111"
         width="93.3209"
         id="rect5979"
         style="opacity:1;fill:#ffffff;fill-opacity:1;fill-rule:nonzero;stroke:#000000;stroke-width:7.10952711;stroke-linecap:square;stroke-linejoin:miter;stroke-miterlimit:1.60000002;stroke-dasharray:none;stroke-opacity:1" />
      <path
         id="path5981"
         style="fill:#000000;fill-opacity:1;fill-rule:evenodd;stroke:#000000;stroke-width:2.60433245;stroke-linecap:butt;stroke-linejoin:miter;stroke-miterlimit:4;stroke-dasharray:none;stroke-opacity:1"
         d="m 117.77234,1015.3562 c 0,0 30.80127,-20.14206 48.2121,-31.3093 6.70663,-4.30168 -10.60293,-10.77514 -14.45306,-4.61214 -5.54417,8.87467 -14.83284,15.29106 -20.49138,13.30725 -5.65853,-1.9838 -5.65853,-11.15814 0,-20.49137 5.65854,-9.33323 13.5101,-14.79327 20.49138,-13.30726 3.90876,0.83204 21.19523,-27.81867 14.45306,-23.53901 -15.89329,10.08844 -48.2121,31.30931 -48.2121,31.30931 z"
         inkscape:connector-curvature="0"
         sodipodi:nodetypes="csssssscc" />
      <rect
         transform="matrix(0.83867057,0.54463904,0,1,0,0)"
         y="898.17804"
         x="26.865999"
         height="76.950111"
         width="93.3209"
         id="rect5983"
         style="opacity:1;fill:#ffffff;fill-opacity:1;fill-rule:nonzero;stroke:#000000;stroke-width:7.10952711;stroke-linecap:square;stroke-linejoin:miter;stroke-miterlimit:1.60000002;stroke-dasharray:none;stroke-opacity:1" />
      <rect
         transform="matrix(0.83828718,-0.54522895,0.83828718,0.54522895,0,0)"
         ry="0"
         y="850.63477"
         x="-823.75653"
         height="93.363609"
         width="93.363609"
         id="rect5985"
         style="opacity:1;fill:#ffffff;fill-opacity:1;fill-rule:nonzero;stroke:#000000;stroke-width:6.80981874;stroke-linecap:square;stroke-linejoin:miter;stroke-miterlimit:1.60000002;stroke-dasharray:none;stroke-opacity:1" />
      <rect
         transform="matrix(0.83828718,-0.54522895,0.83828718,0.54522895,0,0)"
         ry="0"
         y="897.05182"
         x="-816.78882"
         height="0.52940577"
         width="79.428329"
         id="rect5987"
         style="opacity:1;fill:#ffffff;fill-opacity:1;fill-rule:nonzero;stroke:#000000;stroke-width:16.99013138;stroke-linecap:square;stroke-linejoin:miter;stroke-miterlimit:2;stroke-dasharray:none;stroke-opacity:1" />
      <rect
         style="opacity:1;fill:#000000;fill-opacity:1;fill-rule:nonzero;stroke:#000000;stroke-width:7.10952711;stroke-linecap:square;stroke-linejoin:miter;stroke-miterlimit:10;stroke-dasharray:none;stroke-opacity:1"
         id="rect5989"
         width="10.946861"
         height="19.190893"
         x="70.773972"
         y="897.88086"
         transform="matrix(0.83867057,0.54463904,0,1,0,0)" />
    </g>
    <g
       id="g5991"
       transform="matrix(0.39447207,0,0,0.39447207,59.599903,531.97965)">
      <rect
         style="opacity:1;fill:#ffffff;fill-opacity:1;fill-rule:nonzero;stroke:#000000;stroke-width:7.10952711;stroke-linecap:square;stroke-linejoin:miter;stroke-miterlimit:1.60000002;stroke-dasharray:none;stroke-opacity:1"
         id="rect5993"
         width="93.3209"
         height="76.950111"
         x="120.1869"
         y="1029.095"
         transform="matrix(0.83867057,-0.54463904,0,1,0,0)" />
      <path
         sodipodi:nodetypes="csssssscc"
         inkscape:connector-curvature="0"
         d="m 117.77234,1015.3562 c 0,0 30.80127,-20.14206 48.2121,-31.3093 6.70663,-4.30168 -10.60293,-10.77514 -14.45306,-4.61214 -5.54417,8.87467 -14.83284,15.29106 -20.49138,13.30725 -5.65853,-1.9838 -5.65853,-11.15814 0,-20.49137 5.65854,-9.33323 13.5101,-14.79327 20.49138,-13.30726 3.90876,0.83204 21.19523,-27.81867 14.45306,-23.53901 -15.89329,10.08844 -48.2121,31.30931 -48.2121,31.30931 z"
         style="fill:#000000;fill-opacity:1;fill-rule:evenodd;stroke:#000000;stroke-width:2.60433245;stroke-linecap:butt;stroke-linejoin:miter;stroke-miterlimit:4;stroke-dasharray:none;stroke-opacity:1"
         id="path5995" />
      <rect
         style="opacity:1;fill:#ffffff;fill-opacity:1;fill-rule:nonzero;stroke:#000000;stroke-width:7.10952711;stroke-linecap:square;stroke-linejoin:miter;stroke-miterlimit:1.60000002;stroke-dasharray:none;stroke-opacity:1"
         id="rect5997"
         width="93.3209"
         height="76.950111"
         x="26.865999"
         y="898.17804"
         transform="matrix(0.83867057,0.54463904,0,1,0,0)" />
      <rect
         style="opacity:1;fill:#ffffff;fill-opacity:1;fill-rule:nonzero;stroke:#000000;stroke-width:6.80981874;stroke-linecap:square;stroke-linejoin:miter;stroke-miterlimit:1.60000002;stroke-dasharray:none;stroke-opacity:1"
         id="rect5999"
         width="93.363609"
         height="93.363609"
         x="-823.75653"
         y="850.63477"
         ry="0"
         transform="matrix(0.83828718,-0.54522895,0.83828718,0.54522895,0,0)" />
      <rect
         style="opacity:1;fill:#ffffff;fill-opacity:1;fill-rule:nonzero;stroke:#000000;stroke-width:16.99013138;stroke-linecap:square;stroke-linejoin:miter;stroke-miterlimit:2;stroke-dasharray:none;stroke-opacity:1"
         id="rect6001"
         width="79.428329"
         height="0.52940577"
         x="-816.78882"
         y="897.05182"
         ry="0"
         transform="matrix(0.83828718,-0.54522895,0.83828718,0.54522895,0,0)" />
      <rect
         transform="matrix(0.83867057,0.54463904,0,1,0,0)"
         y="897.88086"
         x="70.773972"
         height="19.190893"
         width="10.946861"
         id="rect6003"
         style="opacity:1;fill:#000000;fill-opacity:1;fill-rule:nonzero;stroke:#000000;stroke-width:7.10952711;stroke-linecap:square;stroke-linejoin:miter;stroke-miterlimit:10;stroke-dasharray:none;stroke-opacity:1" />
    </g>
  </g>
</svg>
